<?xml version='1.0' encoding='UTF-8'?>
<svg width="170mm" height="170mm" version="1.1" viewBox="0 0 170 170" xmlns="http://www.w3.org/2000/svg"><path d="M4,4H6V6H4zM6,4H8V6H6zM8,4H10V6H8zM10,4H12V6H10zM12,4H14V6H12zM14,4H16V6H14zM16,4H18V6H16zM26,4H28V6H26zM28,4H30V6H28zM30,4H32V6H30zM34,4H36V6H34zM36,4H38V6H36zM40,4H42V6H40zM42,4H44V6H42zM46,4H48V6H46zM52,4H54V6H52zM54,4H56V6H54zM56,4H58V6H56zM60,4H62V6H60zM62,4H64V6H62zM64,4H66V6H64zM76,4H78V6H76zM84,4H86V6H84zM88,4H90V6H88zM90,4H92V6H90zM104,4H106V6H104zM110,4H112V6H110zM112,4H114V6H112zM116,4H118V6H116zM118,4H120V6H118zM120,4H122V6H120zM122,4H124V6H122zM126,4H128V6H126zM132,4H134V6H132zM134,4H136V6H134zM138,4H140V6H138zM142,4H144V6H142zM152,4H154V6H152zM154,4H156V6H154zM156,4H158V6H156zM158,4H160V6H158zM160,4H162V6H160zM162,4H164V6H162zM164,4H166V6H164zM4,6H6V8H4zM16,6H18V8H16zM30,6H32V8H30zM36,6H38V8H36zM40,6H42V8H40zM42,6H44V8H42zM44,6H46V8H44zM46,6H48V8H46zM48,6H50V8H48zM50,6H52V8H50zM52,6H54V8H52zM54,6H56V8H54zM56,6H58V8H56zM60,6H62V8H60zM66,6H68V8H66zM70,6H72V8H70zM72,6H74V8H72zM74,6H76V8H74zM78,6H80V8H78zM86,6H88V8H86zM88,6H90V8H88zM90,6H92V8H90zM92,6H94V8H92zM96,6H98V8H96zM98,6H100V8H98zM116,6H118V8H116zM120,6H122V8H120zM122,6H124V8H122zM124,6H126V8H124zM126,6H128V8H126zM144,6H146V8H144zM146,6H148V8H146zM148,6H150V8H148zM152,6H154V8H152zM164,6H166V8H164zM4,8H6V10H4zM8,8H10V10H8zM10,8H12V10H10zM12,8H14V10H12zM16,8H18V10H16zM20,8H22V10H20zM22,8H24V10H22zM26,8H28V10H26zM30,8H32V10H30zM32,8H34V10H32zM34,8H36V10H34zM38,8H40V10H38zM42,8H44V10H42zM44,8H46V10H44zM52,8H54V10H52zM58,8H60V10H58zM66,8H68V10H66zM86,8H88V10H86zM90,8H92V10H90zM96,8H98V10H96zM102,8H104V10H102zM104,8H106V10H104zM112,8H114V10H112zM114,8H116V10H114zM118,8H120V10H118zM124,8H126V10H124zM130,8H132V10H130zM136,8H138V10H136zM140,8H142V10H140zM144,8H146V10H144zM148,8H150V10H148zM152,8H154V10H152zM156,8H158V10H156zM158,8H160V10H158zM160,8H162V10H160zM164,8H166V10H164zM4,10H6V12H4zM8,10H10V12H8zM10,10H12V12H10zM12,10H14V12H12zM16,10H18V12H16zM20,10H22V12H20zM22,10H24V12H22zM24,10H26V12H24zM30,10H32V12H30zM32,10H34V12H32zM36,10H38V12H36zM38,10H40V12H38zM42,10H44V12H42zM46,10H48V12H46zM48,10H50V12H48zM50,10H52V12H50zM58,10H60V12H58zM78,10H80V12H78zM84,10H86V12H84zM86,10H88V12H86zM88,10H90V12H88zM96,10H98V12H96zM104,10H106V12H104zM108,10H110V12H108zM116,10H118V12H116zM118,10H120V12H118zM120,10H122V12H120zM126,10H128V12H126zM134,10H136V12H134zM136,10H138V12H136zM140,10H142V12H140zM144,10H146V12H144zM148,10H150V12H148zM152,10H154V12H152zM156,10H158V12H156zM158,10H160V12H158zM160,10H162V12H160zM164,10H166V12H164zM4,12H6V14H4zM8,12H10V14H8zM10,12H12V14H10zM12,12H14V14H12zM16,12H18V14H16zM28,12H30V14H28zM34,12H36V14H34zM36,12H38V14H36zM38,12H40V14H38zM40,12H42V14H40zM44,12H46V14H44zM48,12H50V14H48zM50,12H52V14H50zM52,12H54V14H52zM54,12H56V14H54zM56,12H58V14H56zM58,12H60V14H58zM60,12H62V14H60zM62,12H64V14H62zM66,12H68V14H66zM68,12H70V14H68zM80,12H82V14H80zM92,12H94V14H92zM94,12H96V14H94zM98,12H100V14H98zM100,12H102V14H100zM102,12H104V14H102zM104,12H106V14H104zM106,12H108V14H106zM108,12H110V14H108zM110,12H112V14H110zM114,12H116V14H114zM116,12H118V14H116zM118,12H120V14H118zM120,12H122V14H120zM122,12H124V14H122zM124,12H126V14H124zM128,12H130V14H128zM134,12H136V14H134zM138,12H140V14H138zM140,12H142V14H140zM152,12H154V14H152zM156,12H158V14H156zM158,12H160V14H158zM160,12H162V14H160zM164,12H166V14H164zM4,14H6V16H4zM16,14H18V16H16zM24,14H26V16H24zM26,14H28V16H26zM28,14H30V16H28zM30,14H32V16H30zM32,14H34V16H32zM36,14H38V16H36zM40,14H42V16H40zM44,14H46V16H44zM46,14H48V16H46zM52,14H54V16H52zM60,14H62V16H60zM64,14H66V16H64zM74,14H76V16H74zM76,14H78V16H76zM78,14H80V16H78zM82,14H84V16H82zM86,14H88V16H86zM90,14H92V16H90zM96,14H98V16H96zM98,14H100V16H98zM100,14H102V16H100zM108,14H110V16H108zM114,14H116V16H114zM118,14H120V16H118zM120,14H122V16H120zM122,14H124V16H122zM126,14H128V16H126zM136,14H138V16H136zM146,14H148V16H146zM152,14H154V16H152zM164,14H166V16H164zM4,16H6V18H4zM6,16H8V18H6zM8,16H10V18H8zM10,16H12V18H10zM12,16H14V18H12zM14,16H16V18H14zM16,16H18V18H16zM20,16H22V18H20zM24,16H26V18H24zM28,16H30V18H28zM32,16H34V18H32zM36,16H38V18H36zM40,16H42V18H40zM44,16H46V18H44zM48,16H50V18H48zM52,16H54V18H52zM56,16H58V18H56zM60,16H62V18H60zM64,16H66V18H64zM68,16H70V18H68zM72,16H74V18H72zM76,16H78V18H76zM80,16H82V18H80zM84,16H86V18H84zM88,16H90V18H88zM92,16H94V18H92zM96,16H98V18H96zM100,16H102V18H100zM104,16H106V18H104zM108,16H110V18H108zM112,16H114V18H112zM116,16H118V18H116zM120,16H122V18H120zM124,16H126V18H124zM128,16H130V18H128zM132,16H134V18H132zM136,16H138V18H136zM140,16H142V18H140zM144,16H146V18H144zM148,16H150V18H148zM152,16H154V18H152zM154,16H156V18H154zM156,16H158V18H156zM158,16H160V18H158zM160,16H162V18H160zM162,16H164V18H162zM164,16H166V18H164zM32,18H34V20H32zM34,18H36V20H34zM36,18H38V20H36zM38,18H40V20H38zM40,18H42V20H40zM46,18H48V20H46zM50,18H52V20H50zM52,18H54V20H52zM60,18H62V20H60zM64,18H66V20H64zM68,18H70V20H68zM70,18H72V20H70zM74,18H76V20H74zM80,18H82V20H80zM82,18H84V20H82zM84,18H86V20H84zM86,18H88V20H86zM88,18H90V20H88zM90,18H92V20H90zM96,18H98V20H96zM100,18H102V20H100zM108,18H110V20H108zM118,18H120V20H118zM120,18H122V20H120zM122,18H124V20H122zM126,18H128V20H126zM130,18H132V20H130zM132,18H134V20H132zM142,18H144V20H142zM146,18H148V20H146zM148,18H150V20H148zM10,20H12V22H10zM12,20H14V22H12zM16,20H18V22H16zM18,20H20V22H18zM22,20H24V22H22zM24,20H26V22H24zM26,20H28V22H26zM30,20H32V22H30zM32,20H34V22H32zM34,20H36V22H34zM36,20H38V22H36zM38,20H40V22H38zM40,20H42V22H40zM52,20H54V22H52zM54,20H56V22H54zM56,20H58V22H56zM58,20H60V22H58zM60,20H62V22H60zM64,20H66V22H64zM66,20H68V22H66zM70,20H72V22H70zM74,20H76V22H74zM80,20H82V22H80zM84,20H86V22H84zM86,20H88V22H86zM90,20H92V22H90zM96,20H98V22H96zM98,20H100V22H98zM100,20H102V22H100zM102,20H104V22H102zM104,20H106V22H104zM106,20H108V22H106zM108,20H110V22H108zM110,20H112V22H110zM112,20H114V22H112zM114,20H116V22H114zM118,20H120V22H118zM120,20H122V22H120zM124,20H126V22H124zM126,20H128V22H126zM128,20H130V22H128zM130,20H132V22H130zM132,20H134V22H132zM138,20H140V22H138zM140,20H142V22H140zM158,20H160V22H158zM160,20H162V22H160zM8,22H10V24H8zM12,22H14V24H12zM18,22H20V24H18zM20,22H22V24H20zM22,22H24V24H22zM26,22H28V24H26zM28,22H30V24H28zM34,22H36V24H34zM40,22H42V24H40zM42,22H44V24H42zM44,22H46V24H44zM50,22H52V24H50zM52,22H54V24H52zM54,22H56V24H54zM58,22H60V24H58zM60,22H62V24H60zM62,22H64V24H62zM66,22H68V24H66zM68,22H70V24H68zM70,22H72V24H70zM74,22H76V24H74zM78,22H80V24H78zM80,22H82V24H80zM82,22H84V24H82zM84,22H86V24H84zM88,22H90V24H88zM94,22H96V24H94zM100,22H102V24H100zM102,22H104V24H102zM112,22H114V24H112zM114,22H116V24H114zM124,22H126V24H124zM126,22H128V24H126zM128,22H130V24H128zM132,22H134V24H132zM136,22H138V24H136zM150,22H152V24H150zM152,22H154V24H152zM154,22H156V24H154zM156,22H158V24H156zM164,22H166V24H164zM4,24H6V26H4zM6,24H8V26H6zM10,24H12V26H10zM12,24H14V26H12zM14,24H16V26H14zM16,24H18V26H16zM18,24H20V26H18zM20,24H22V26H20zM24,24H26V26H24zM26,24H28V26H26zM30,24H32V26H30zM32,24H34V26H32zM34,24H36V26H34zM42,24H44V26H42zM46,24H48V26H46zM50,24H52V26H50zM66,24H68V26H66zM68,24H70V26H68zM72,24H74V26H72zM78,24H80V26H78zM80,24H82V26H80zM82,24H84V26H82zM88,24H90V26H88zM96,24H98V26H96zM100,24H102V26H100zM102,24H104V26H102zM104,24H106V26H104zM108,24H110V26H108zM110,24H112V26H110zM114,24H116V26H114zM116,24H118V26H116zM118,24H120V26H118zM120,24H122V26H120zM124,24H126V26H124zM134,24H136V26H134zM140,24H142V26H140zM150,24H152V26H150zM152,24H154V26H152zM158,24H160V26H158zM160,24H162V26H160zM162,24H164V26H162zM164,24H166V26H164zM4,26H6V28H4zM6,26H8V28H6zM10,26H12V28H10zM12,26H14V28H12zM20,26H22V28H20zM24,26H26V28H24zM30,26H32V28H30zM32,26H34V28H32zM38,26H40V28H38zM40,26H42V28H40zM42,26H44V28H42zM44,26H46V28H44zM52,26H54V28H52zM56,26H58V28H56zM60,26H62V28H60zM66,26H68V28H66zM70,26H72V28H70zM80,26H82V28H80zM86,26H88V28H86zM88,26H90V28H88zM92,26H94V28H92zM94,26H96V28H94zM96,26H98V28H96zM98,26H100V28H98zM102,26H104V28H102zM104,26H106V28H104zM110,26H112V28H110zM112,26H114V28H112zM114,26H116V28H114zM120,26H122V28H120zM122,26H124V28H122zM124,26H126V28H124zM130,26H132V28H130zM132,26H134V28H132zM134,26H136V28H134zM138,26H140V28H138zM142,26H144V28H142zM144,26H146V28H144zM146,26H148V28H146zM148,26H150V28H148zM150,26H152V28H150zM152,26H154V28H152zM154,26H156V28H154zM156,26H158V28H156zM160,26H162V28H160zM164,26H166V28H164zM8,28H10V30H8zM10,28H12V30H10zM16,28H18V30H16zM20,28H22V30H20zM22,28H24V30H22zM30,28H32V30H30zM34,28H36V30H34zM36,28H38V30H36zM38,28H40V30H38zM42,28H44V30H42zM44,28H46V30H44zM48,28H50V30H48zM52,28H54V30H52zM54,28H56V30H54zM56,28H58V30H56zM60,28H62V30H60zM66,28H68V30H66zM72,28H74V30H72zM74,28H76V30H74zM76,28H78V30H76zM80,28H82V30H80zM88,28H90V30H88zM102,28H104V30H102zM112,28H114V30H112zM114,28H116V30H114zM118,28H120V30H118zM122,28H124V30H122zM126,28H128V30H126zM128,28H130V30H128zM130,28H132V30H130zM132,28H134V30H132zM136,28H138V30H136zM142,28H144V30H142zM144,28H146V30H144zM146,28H148V30H146zM154,28H156V30H154zM164,28H166V30H164zM6,30H8V32H6zM10,30H12V32H10zM14,30H16V32H14zM20,30H22V32H20zM24,30H26V32H24zM26,30H28V32H26zM30,30H32V32H30zM32,30H34V32H32zM34,30H36V32H34zM48,30H50V32H48zM50,30H52V32H50zM54,30H56V32H54zM58,30H60V32H58zM60,30H62V32H60zM70,30H72V32H70zM80,30H82V32H80zM82,30H84V32H82zM86,30H88V32H86zM88,30H90V32H88zM96,30H98V32H96zM98,30H100V32H98zM102,30H104V32H102zM104,30H106V32H104zM108,30H110V32H108zM126,30H128V32H126zM130,30H132V32H130zM136,30H138V32H136zM140,30H142V32H140zM144,30H146V32H144zM150,30H152V32H150zM6,32H8V34H6zM8,32H10V34H8zM10,32H12V34H10zM16,32H18V34H16zM18,32H20V34H18zM20,32H22V34H20zM22,32H24V34H22zM28,32H30V34H28zM30,32H32V34H30zM36,32H38V34H36zM38,32H40V34H38zM42,32H44V34H42zM44,32H46V34H44zM50,32H52V34H50zM58,32H60V34H58zM62,32H64V34H62zM64,32H66V34H64zM68,32H70V34H68zM70,32H72V34H70zM72,32H74V34H72zM74,32H76V34H74zM78,32H80V34H78zM84,32H86V34H84zM86,32H88V34H86zM88,32H90V34H88zM90,32H92V34H90zM92,32H94V34H92zM94,32H96V34H94zM100,32H102V34H100zM102,32H104V34H102zM106,32H108V34H106zM108,32H110V34H108zM110,32H112V34H110zM114,32H116V34H114zM122,32H124V34H122zM124,32H126V34H124zM132,32H134V34H132zM134,32H136V34H134zM138,32H140V34H138zM140,32H142V34H140zM154,32H156V34H154zM156,32H158V34H156zM158,32H160V34H158zM164,32H166V34H164zM4,34H6V36H4zM8,34H10V36H8zM10,34H12V36H10zM12,34H14V36H12zM14,34H16V36H14zM22,34H24V36H22zM24,34H26V36H24zM26,34H28V36H26zM28,34H30V36H28zM30,34H32V36H30zM32,34H34V36H32zM34,34H36V36H34zM36,34H38V36H36zM44,34H46V36H44zM46,34H48V36H46zM48,34H50V36H48zM50,34H52V36H50zM54,34H56V36H54zM58,34H60V36H58zM60,34H62V36H60zM64,34H66V36H64zM68,34H70V36H68zM70,34H72V36H70zM74,34H76V36H74zM76,34H78V36H76zM78,34H80V36H78zM80,34H82V36H80zM84,34H86V36H84zM88,34H90V36H88zM90,34H92V36H90zM100,34H102V36H100zM112,34H114V36H112zM116,34H118V36H116zM118,34H120V36H118zM120,34H122V36H120zM130,34H132V36H130zM132,34H134V36H132zM136,34H138V36H136zM138,34H140V36H138zM150,34H152V36H150zM154,34H156V36H154zM156,34H158V36H156zM158,34H160V36H158zM160,34H162V36H160zM164,34H166V36H164zM4,36H6V38H4zM6,36H8V38H6zM12,36H14V38H12zM14,36H16V38H14zM16,36H18V38H16zM18,36H20V38H18zM20,36H22V38H20zM24,36H26V38H24zM28,36H30V38H28zM30,36H32V38H30zM36,36H38V38H36zM48,36H50V38H48zM52,36H54V38H52zM54,36H56V38H54zM56,36H58V38H56zM62,36H64V38H62zM64,36H66V38H64zM66,36H68V38H66zM68,36H70V38H68zM70,36H72V38H70zM72,36H74V38H72zM80,36H82V38H80zM82,36H84V38H82zM88,36H90V38H88zM92,36H94V38H92zM98,36H100V38H98zM100,36H102V38H100zM106,36H108V38H106zM108,36H110V38H108zM110,36H112V38H110zM120,36H122V38H120zM122,36H124V38H122zM124,36H126V38H124zM130,36H132V38H130zM134,36H136V38H134zM136,36H138V38H136zM150,36H152V38H150zM152,36H154V38H152zM154,36H156V38H154zM156,36H158V38H156zM158,36H160V38H158zM160,36H162V38H160zM164,36H166V38H164zM4,38H6V40H4zM6,38H8V40H6zM12,38H14V40H12zM14,38H16V40H14zM22,38H24V40H22zM30,38H32V40H30zM32,38H34V40H32zM34,38H36V40H34zM38,38H40V40H38zM40,38H42V40H40zM42,38H44V40H42zM48,38H50V40H48zM50,38H52V40H50zM54,38H56V40H54zM68,38H70V40H68zM70,38H72V40H70zM74,38H76V40H74zM76,38H78V40H76zM80,38H82V40H80zM92,38H94V40H92zM104,38H106V40H104zM106,38H108V40H106zM108,38H110V40H108zM110,38H112V40H110zM112,38H114V40H112zM116,38H118V40H116zM122,38H124V40H122zM124,38H126V40H124zM134,38H136V40H134zM144,38H146V40H144zM146,38H148V40H146zM150,38H152V40H150zM156,38H158V40H156zM164,38H166V40H164zM4,40H6V42H4zM16,40H18V42H16zM22,40H24V42H22zM26,40H28V42H26zM28,40H30V42H28zM32,40H34V42H32zM34,40H36V42H34zM36,40H38V42H36zM38,40H40V42H38zM46,40H48V42H46zM56,40H58V42H56zM58,40H60V42H58zM60,40H62V42H60zM62,40H64V42H62zM66,40H68V42H66zM68,40H70V42H68zM78,40H80V42H78zM84,40H86V42H84zM88,40H90V42H88zM90,40H92V42H90zM92,40H94V42H92zM96,40H98V42H96zM98,40H100V42H98zM102,40H104V42H102zM104,40H106V42H104zM106,40H108V42H106zM108,40H110V42H108zM110,40H112V42H110zM116,40H118V42H116zM122,40H124V42H122zM138,40H140V42H138zM140,40H142V42H140zM146,40H148V42H146zM148,40H150V42H148zM152,40H154V42H152zM154,40H156V42H154zM156,40H158V42H156zM158,40H160V42H158zM164,40H166V42H164zM8,42H10V44H8zM14,42H16V44H14zM18,42H20V44H18zM22,42H24V44H22zM34,42H36V44H34zM36,42H38V44H36zM38,42H40V44H38zM40,42H42V44H40zM44,42H46V44H44zM46,42H48V44H46zM48,42H50V44H48zM54,42H56V44H54zM56,42H58V44H56zM64,42H66V44H64zM66,42H68V44H66zM72,42H74V44H72zM74,42H76V44H74zM76,42H78V44H76zM78,42H80V44H78zM80,42H82V44H80zM82,42H84V44H82zM86,42H88V44H86zM88,42H90V44H88zM90,42H92V44H90zM96,42H98V44H96zM102,42H104V44H102zM104,42H106V44H104zM110,42H112V44H110zM112,42H114V44H112zM122,42H124V44H122zM124,42H126V44H124zM126,42H128V44H126zM128,42H130V44H128zM130,42H132V44H130zM132,42H134V44H132zM136,42H138V44H136zM150,42H152V44H150zM160,42H162V44H160zM6,44H8V46H6zM8,44H10V46H8zM16,44H18V46H16zM20,44H22V46H20zM22,44H24V46H22zM24,44H26V46H24zM26,44H28V46H26zM30,44H32V46H30zM34,44H36V46H34zM46,44H48V46H46zM48,44H50V46H48zM50,44H52V46H50zM54,44H56V46H54zM68,44H70V46H68zM70,44H72V46H70zM72,44H74V46H72zM74,44H76V46H74zM80,44H82V46H80zM96,44H98V46H96zM98,44H100V46H98zM100,44H102V46H100zM108,44H110V46H108zM112,44H114V46H112zM114,44H116V46H114zM126,44H128V46H126zM128,44H130V46H128zM130,44H132V46H130zM136,44H138V46H136zM138,44H140V46H138zM140,44H142V46H140zM144,44H146V46H144zM146,44H148V46H146zM152,44H154V46H152zM156,44H158V46H156zM158,44H160V46H158zM164,44H166V46H164zM4,46H6V48H4zM10,46H12V48H10zM18,46H20V48H18zM20,46H22V48H20zM26,46H28V48H26zM28,46H30V48H28zM40,46H42V48H40zM42,46H44V48H42zM48,46H50V48H48zM62,46H64V48H62zM68,46H70V48H68zM70,46H72V48H70zM74,46H76V48H74zM82,46H84V48H82zM88,46H90V48H88zM90,46H92V48H90zM96,46H98V48H96zM98,46H100V48H98zM104,46H106V48H104zM114,46H116V48H114zM122,46H124V48H122zM124,46H126V48H124zM132,46H134V48H132zM136,46H138V48H136zM144,46H146V48H144zM148,46H150V48H148zM150,46H152V48H150zM152,46H154V48H152zM154,46H156V48H154zM158,46H160V48H158zM6,48H8V50H6zM14,48H16V50H14zM16,48H18V50H16zM18,48H20V50H18zM24,48H26V50H24zM26,48H28V50H26zM28,48H30V50H28zM30,48H32V50H30zM32,48H34V50H32zM34,48H36V50H34zM36,48H38V50H36zM44,48H46V50H44zM46,48H48V50H46zM54,48H56V50H54zM56,48H58V50H56zM62,48H64V50H62zM64,48H66V50H64zM66,48H68V50H66zM70,48H72V50H70zM78,48H80V50H78zM80,48H82V50H80zM86,48H88V50H86zM88,48H90V50H88zM92,48H94V50H92zM98,48H100V50H98zM100,48H102V50H100zM102,48H104V50H102zM106,48H108V50H106zM108,48H110V50H108zM110,48H112V50H110zM114,48H116V50H114zM116,48H118V50H116zM120,48H122V50H120zM124,48H126V50H124zM126,48H128V50H126zM130,48H132V50H130zM140,48H142V50H140zM144,48H146V50H144zM146,48H148V50H146zM148,48H150V50H148zM150,48H152V50H150zM152,48H154V50H152zM154,48H156V50H154zM156,48H158V50H156zM162,48H164V50H162zM164,48H166V50H164zM8,50H10V52H8zM12,50H14V52H12zM20,50H22V52H20zM22,50H24V52H22zM24,50H26V52H24zM26,50H28V52H26zM34,50H36V52H34zM38,50H40V52H38zM40,50H42V52H40zM44,50H46V52H44zM48,50H50V52H48zM50,50H52V52H50zM62,50H64V52H62zM64,50H66V52H64zM68,50H70V52H68zM70,50H72V52H70zM74,50H76V52H74zM78,50H80V52H78zM80,50H82V52H80zM88,50H90V52H88zM90,50H92V52H90zM92,50H94V52H92zM100,50H102V52H100zM102,50H104V52H102zM104,50H106V52H104zM112,50H114V52H112zM116,50H118V52H116zM128,50H130V52H128zM134,50H136V52H134zM138,50H140V52H138zM140,50H142V52H140zM142,50H144V52H142zM148,50H150V52H148zM152,50H154V52H152zM154,50H156V52H154zM156,50H158V52H156zM158,50H160V52H158zM160,50H162V52H160zM162,50H164V52H162zM8,52H10V54H8zM10,52H12V54H10zM12,52H14V54H12zM14,52H16V54H14zM16,52H18V54H16zM18,52H20V54H18zM20,52H22V54H20zM32,52H34V54H32zM34,52H36V54H34zM36,52H38V54H36zM38,52H40V54H38zM40,52H42V54H40zM42,52H44V54H42zM44,52H46V54H44zM46,52H48V54H46zM50,52H52V54H50zM52,52H54V54H52zM54,52H56V54H54zM56,52H58V54H56zM58,52H60V54H58zM60,52H62V54H60zM62,52H64V54H62zM64,52H66V54H64zM68,52H70V54H68zM76,52H78V54H76zM86,52H88V54H86zM90,52H92V54H90zM92,52H94V54H92zM96,52H98V54H96zM100,52H102V54H100zM102,52H104V54H102zM104,52H106V54H104zM106,52H108V54H106zM108,52H110V54H108zM110,52H112V54H110zM114,52H116V54H114zM116,52H118V54H116zM120,52H122V54H120zM122,52H124V54H122zM126,52H128V54H126zM128,52H130V54H128zM130,52H132V54H130zM132,52H134V54H132zM134,52H136V54H134zM138,52H140V54H138zM142,52H144V54H142zM144,52H146V54H144zM148,52H150V54H148zM150,52H152V54H150zM152,52H154V54H152zM154,52H156V54H154zM156,52H158V54H156zM158,52H160V54H158zM164,52H166V54H164zM8,54H10V56H8zM12,54H14V56H12zM20,54H22V56H20zM22,54H24V56H22zM24,54H26V56H24zM26,54H28V56H26zM38,54H40V56H38zM40,54H42V56H40zM42,54H44V56H42zM44,54H46V56H44zM52,54H54V56H52zM60,54H62V56H60zM64,54H66V56H64zM68,54H70V56H68zM74,54H76V56H74zM76,54H78V56H76zM78,54H80V56H78zM82,54H84V56H82zM86,54H88V56H86zM90,54H92V56H90zM94,54H96V56H94zM100,54H102V56H100zM108,54H110V56H108zM114,54H116V56H114zM120,54H122V56H120zM126,54H128V56H126zM136,54H138V56H136zM138,54H140V56H138zM144,54H146V56H144zM146,54H148V56H146zM148,54H150V56H148zM156,54H158V56H156zM164,54H166V56H164zM10,56H12V58H10zM12,56H14V58H12zM16,56H18V58H16zM20,56H22V58H20zM24,56H26V58H24zM28,56H30V58H28zM32,56H34V58H32zM34,56H36V58H34zM38,56H40V58H38zM42,56H44V58H42zM44,56H46V58H44zM48,56H50V58H48zM52,56H54V58H52zM56,56H58V58H56zM60,56H62V58H60zM66,56H68V58H66zM76,56H78V58H76zM78,56H80V58H78zM80,56H82V58H80zM86,56H88V58H86zM96,56H98V58H96zM100,56H102V58H100zM104,56H106V58H104zM108,56H110V58H108zM112,56H114V58H112zM114,56H116V58H114zM122,56H124V58H122zM124,56H126V58H124zM130,56H132V58H130zM134,56H136V58H134zM140,56H142V58H140zM148,56H150V58H148zM152,56H154V58H152zM156,56H158V58H156zM4,58H6V60H4zM8,58H10V60H8zM10,58H12V60H10zM12,58H14V60H12zM20,58H22V60H20zM24,58H26V60H24zM30,58H32V60H30zM32,58H34V60H32zM38,58H40V60H38zM42,58H44V60H42zM44,58H46V60H44zM52,58H54V60H52zM60,58H62V60H60zM74,58H76V60H74zM76,58H78V60H76zM78,58H80V60H78zM86,58H88V60H86zM90,58H92V60H90zM96,58H98V60H96zM100,58H102V60H100zM108,58H110V60H108zM112,58H114V60H112zM116,58H118V60H116zM120,58H122V60H120zM124,58H126V60H124zM128,58H130V60H128zM130,58H132V60H130zM132,58H134V60H132zM134,58H136V60H134zM136,58H138V60H136zM138,58H140V60H138zM140,58H142V60H140zM148,58H150V60H148zM156,58H158V60H156zM158,58H160V60H158zM160,58H162V60H160zM162,58H164V60H162zM164,58H166V60H164zM6,60H8V62H6zM12,60H14V62H12zM14,60H16V62H14zM16,60H18V62H16zM18,60H20V62H18zM20,60H22V62H20zM22,60H24V62H22zM24,60H26V62H24zM32,60H34V62H32zM34,60H36V62H34zM36,60H38V62H36zM38,60H40V62H38zM42,60H44V62H42zM44,60H46V62H44zM50,60H52V62H50zM52,60H54V62H52zM54,60H56V62H54zM56,60H58V62H56zM58,60H60V62H58zM60,60H62V62H60zM62,60H64V62H62zM64,60H66V62H64zM66,60H68V62H66zM72,60H74V62H72zM74,60H76V62H74zM76,60H78V62H76zM78,60H80V62H78zM80,60H82V62H80zM84,60H86V62H84zM90,60H92V62H90zM92,60H94V62H92zM94,60H96V62H94zM96,60H98V62H96zM100,60H102V62H100zM102,60H104V62H102zM104,60H106V62H104zM106,60H108V62H106zM108,60H110V62H108zM110,60H112V62H110zM116,60H118V62H116zM118,60H120V62H118zM120,60H122V62H120zM122,60H124V62H122zM126,60H128V62H126zM128,60H130V62H128zM130,60H132V62H130zM132,60H134V62H132zM136,60H138V62H136zM140,60H142V62H140zM142,60H144V62H142zM146,60H148V62H146zM148,60H150V62H148zM150,60H152V62H150zM152,60H154V62H152zM154,60H156V62H154zM156,60H158V62H156zM158,60H160V62H158zM160,60H162V62H160zM162,60H164V62H162zM164,60H166V62H164zM4,62H6V64H4zM18,62H20V64H18zM20,62H22V64H20zM22,62H24V64H22zM26,62H28V64H26zM28,62H30V64H28zM30,62H32V64H30zM34,62H36V64H34zM40,62H42V64H40zM42,62H44V64H42zM46,62H48V64H46zM48,62H50V64H48zM56,62H58V64H56zM60,62H62V64H60zM62,62H64V64H62zM68,62H70V64H68zM86,62H88V64H86zM90,62H92V64H90zM98,62H100V64H98zM102,62H104V64H102zM104,62H106V64H104zM108,62H110V64H108zM110,62H112V64H110zM114,62H116V64H114zM120,62H122V64H120zM122,62H124V64H122zM128,62H130V64H128zM132,62H134V64H132zM134,62H136V64H134zM136,62H138V64H136zM138,62H140V64H138zM140,62H142V64H140zM144,62H146V64H144zM146,62H148V64H146zM148,62H150V64H148zM150,62H152V64H150zM152,62H154V64H152zM158,62H160V64H158zM160,62H162V64H160zM164,62H166V64H164zM4,64H6V66H4zM6,64H8V66H6zM8,64H10V66H8zM12,64H14V66H12zM16,64H18V66H16zM20,64H22V66H20zM22,64H24V66H22zM28,64H30V66H28zM32,64H34V66H32zM34,64H36V66H34zM36,64H38V66H36zM38,64H40V66H38zM42,64H44V66H42zM50,64H52V66H50zM52,64H54V66H52zM58,64H60V66H58zM64,64H66V66H64zM66,64H68V66H66zM68,64H70V66H68zM72,64H74V66H72zM74,64H76V66H74zM86,64H88V66H86zM88,64H90V66H88zM90,64H92V66H90zM94,64H96V66H94zM104,64H106V66H104zM108,64H110V66H108zM110,64H112V66H110zM114,64H116V66H114zM116,64H118V66H116zM118,64H120V66H118zM120,64H122V66H120zM124,64H126V66H124zM132,64H134V66H132zM134,64H136V66H134zM142,64H144V66H142zM146,64H148V66H146zM150,64H152V66H150zM154,64H156V66H154zM156,64H158V66H156zM158,64H160V66H158zM160,64H162V66H160zM164,64H166V66H164zM4,66H6V68H4zM6,66H8V68H6zM12,66H14V68H12zM14,66H16V68H14zM22,66H24V68H22zM24,66H26V68H24zM32,66H34V68H32zM36,66H38V68H36zM38,66H40V68H38zM40,66H42V68H40zM44,66H46V68H44zM46,66H48V68H46zM52,66H54V68H52zM54,66H56V68H54zM56,66H58V68H56zM60,66H62V68H60zM62,66H64V68H62zM64,66H66V68H64zM66,66H68V68H66zM68,66H70V68H68zM74,66H76V68H74zM78,66H80V68H78zM84,66H86V68H84zM94,66H96V68H94zM100,66H102V68H100zM104,66H106V68H104zM110,66H112V68H110zM114,66H116V68H114zM132,66H134V68H132zM134,66H136V68H134zM140,66H142V68H140zM146,66H148V68H146zM148,66H150V68H148zM152,66H154V68H152zM154,66H156V68H154zM156,66H158V68H156zM158,66H160V68H158zM164,66H166V68H164zM4,68H6V70H4zM6,68H8V70H6zM8,68H10V70H8zM12,68H14V70H12zM14,68H16V70H14zM16,68H18V70H16zM20,68H22V70H20zM24,68H26V70H24zM26,68H28V70H26zM38,68H40V70H38zM42,68H44V70H42zM46,68H48V70H46zM50,68H52V70H50zM56,68H58V70H56zM60,68H62V70H60zM66,68H68V70H66zM72,68H74V70H72zM74,68H76V70H74zM78,68H80V70H78zM92,68H94V70H92zM98,68H100V70H98zM102,68H104V70H102zM106,68H108V70H106zM108,68H110V70H108zM112,68H114V70H112zM114,68H116V70H114zM116,68H118V70H116zM118,68H120V70H118zM124,68H126V70H124zM126,68H128V70H126zM128,68H130V70H128zM130,68H132V70H130zM134,68H136V70H134zM136,68H138V70H136zM138,68H140V70H138zM142,68H144V70H142zM144,68H146V70H144zM152,68H154V70H152zM154,68H156V70H154zM156,68H158V70H156zM4,70H6V72H4zM6,70H8V72H6zM8,70H10V72H8zM10,70H12V72H10zM20,70H22V72H20zM22,70H24V72H22zM24,70H26V72H24zM34,70H36V72H34zM40,70H42V72H40zM42,70H44V72H42zM48,70H50V72H48zM52,70H54V72H52zM60,70H62V72H60zM66,70H68V72H66zM70,70H72V72H70zM72,70H74V72H72zM74,70H76V72H74zM76,70H78V72H76zM84,70H86V72H84zM86,70H88V72H86zM88,70H90V72H88zM90,70H92V72H90zM92,70H94V72H92zM94,70H96V72H94zM98,70H100V72H98zM102,70H104V72H102zM106,70H108V72H106zM112,70H114V72H112zM114,70H116V72H114zM120,70H122V72H120zM122,70H124V72H122zM124,70H126V72H124zM128,70H130V72H128zM136,70H138V72H136zM138,70H140V72H138zM144,70H146V72H144zM152,70H154V72H152zM156,70H158V72H156zM158,70H160V72H158zM164,70H166V72H164zM4,72H6V74H4zM6,72H8V74H6zM10,72H12V74H10zM12,72H14V74H12zM14,72H16V74H14zM16,72H18V74H16zM18,72H20V74H18zM22,72H24V74H22zM30,72H32V74H30zM40,72H42V74H40zM48,72H50V74H48zM58,72H60V74H58zM68,72H70V74H68zM70,72H72V74H70zM72,72H74V74H72zM74,72H76V74H74zM76,72H78V74H76zM78,72H80V74H78zM90,72H92V74H90zM92,72H94V74H92zM98,72H100V74H98zM100,72H102V74H100zM102,72H104V74H102zM114,72H116V74H114zM118,72H120V74H118zM122,72H124V74H122zM124,72H126V74H124zM130,72H132V74H130zM132,72H134V74H132zM134,72H136V74H134zM138,72H140V74H138zM142,72H144V74H142zM144,72H146V74H144zM146,72H148V74H146zM148,72H150V74H148zM152,72H154V74H152zM156,72H158V74H156zM158,72H160V74H158zM160,72H162V74H160zM162,72H164V74H162zM164,72H166V74H164zM8,74H10V76H8zM10,74H12V76H10zM20,74H22V76H20zM22,74H24V76H22zM26,74H28V76H26zM30,74H32V76H30zM32,74H34V76H32zM34,74H36V76H34zM38,74H40V76H38zM42,74H44V76H42zM46,74H48V76H46zM50,74H52V76H50zM52,74H54V76H52zM58,74H60V76H58zM60,74H62V76H60zM64,74H66V76H64zM68,74H70V76H68zM70,74H72V76H70zM74,74H76V76H74zM78,74H80V76H78zM84,74H86V76H84zM90,74H92V76H90zM92,74H94V76H92zM96,74H98V76H96zM100,74H102V76H100zM106,74H108V76H106zM108,74H110V76H108zM116,74H118V76H116zM118,74H120V76H118zM120,74H122V76H120zM122,74H124V76H122zM126,74H128V76H126zM130,74H132V76H130zM138,74H140V76H138zM144,74H146V76H144zM148,74H150V76H148zM152,74H154V76H152zM158,74H160V76H158zM160,74H162V76H160zM164,74H166V76H164zM6,76H8V78H6zM12,76H14V78H12zM14,76H16V78H14zM16,76H18V78H16zM20,76H22V78H20zM26,76H28V78H26zM30,76H32V78H30zM32,76H34V78H32zM36,76H38V78H36zM38,76H40V78H38zM42,76H44V78H42zM44,76H46V78H44zM46,76H48V78H46zM48,76H50V78H48zM52,76H54V78H52zM56,76H58V78H56zM58,76H60V78H58zM60,76H62V78H60zM62,76H64V78H62zM64,76H66V78H64zM66,76H68V78H66zM68,76H70V78H68zM76,76H78V78H76zM78,76H80V78H78zM88,76H90V78H88zM92,76H94V78H92zM94,76H96V78H94zM96,76H98V78H96zM98,76H100V78H98zM100,76H102V78H100zM108,76H110V78H108zM112,76H114V78H112zM114,76H116V78H114zM116,76H118V78H116zM120,76H122V78H120zM122,76H124V78H122zM124,76H126V78H124zM126,76H128V78H126zM128,76H130V78H128zM130,76H132V78H130zM136,76H138V78H136zM138,76H140V78H138zM140,76H142V78H140zM142,76H144V78H142zM148,76H150V78H148zM152,76H154V78H152zM156,76H158V78H156zM162,76H164V78H162zM164,76H166V78H164zM8,78H10V80H8zM12,78H14V80H12zM14,78H16V80H14zM18,78H20V80H18zM20,78H22V80H20zM26,78H28V80H26zM28,78H30V80H28zM32,78H34V80H32zM38,78H40V80H38zM40,78H42V80H40zM42,78H44V80H42zM48,78H50V80H48zM52,78H54V80H52zM56,78H58V80H56zM60,78H62V80H60zM62,78H64V80H62zM64,78H66V80H64zM68,78H70V80H68zM70,78H72V80H70zM72,78H74V80H72zM78,78H80V80H78zM82,78H84V80H82zM84,78H86V80H84zM86,78H88V80H86zM88,78H90V80H88zM90,78H92V80H90zM96,78H98V80H96zM108,78H110V80H108zM112,78H114V80H112zM116,78H118V80H116zM122,78H124V80H122zM124,78H126V80H124zM126,78H128V80H126zM136,78H138V80H136zM138,78H140V80H138zM152,78H154V80H152zM154,78H156V80H154zM156,78H158V80H156zM158,78H160V80H158zM160,78H162V80H160zM162,78H164V80H162zM164,78H166V80H164zM6,80H8V82H6zM10,80H12V82H10zM14,80H16V82H14zM16,80H18V82H16zM24,80H26V82H24zM26,80H28V82H26zM30,80H32V82H30zM32,80H34V82H32zM36,80H38V82H36zM38,80H40V82H38zM46,80H48V82H46zM48,80H50V82H48zM56,80H58V82H56zM58,80H60V82H58zM60,80H62V82H60zM70,80H72V82H70zM72,80H74V82H72zM76,80H78V82H76zM80,80H82V82H80zM82,80H84V82H82zM84,80H86V82H84zM88,80H90V82H88zM96,80H98V82H96zM98,80H100V82H98zM102,80H104V82H102zM104,80H106V82H104zM106,80H108V82H106zM108,80H110V82H108zM116,80H118V82H116zM118,80H120V82H118zM132,80H134V82H132zM134,80H136V82H134zM136,80H138V82H136zM138,80H140V82H138zM140,80H142V82H140zM144,80H146V82H144zM146,80H148V82H146zM150,80H152V82H150zM154,80H156V82H154zM156,80H158V82H156zM158,80H160V82H158zM160,80H162V82H160zM4,82H6V84H4zM6,82H8V84H6zM8,82H10V84H8zM20,82H22V84H20zM22,82H24V84H22zM24,82H26V84H24zM26,82H28V84H26zM32,82H34V84H32zM36,82H38V84H36zM38,82H40V84H38zM40,82H42V84H40zM46,82H48V84H46zM50,82H52V84H50zM52,82H54V84H52zM60,82H62V84H60zM66,82H68V84H66zM72,82H74V84H72zM74,82H76V84H74zM80,82H82V84H80zM84,82H86V84H84zM90,82H92V84H90zM92,82H94V84H92zM94,82H96V84H94zM96,82H98V84H96zM102,82H104V84H102zM106,82H108V84H106zM110,82H112V84H110zM114,82H116V84H114zM118,82H120V84H118zM120,82H122V84H120zM122,82H124V84H122zM130,82H132V84H130zM138,82H140V84H138zM142,82H144V84H142zM148,82H150V84H148zM150,82H152V84H150zM152,82H154V84H152zM154,82H156V84H154zM156,82H158V84H156zM160,82H162V84H160zM8,84H10V86H8zM10,84H12V86H10zM16,84H18V86H16zM24,84H26V86H24zM26,84H28V86H26zM28,84H30V86H28zM30,84H32V86H30zM32,84H34V86H32zM40,84H42V86H40zM42,84H44V86H42zM58,84H60V86H58zM60,84H62V86H60zM62,84H64V86H62zM64,84H66V86H64zM72,84H74V86H72zM80,84H82V86H80zM82,84H84V86H82zM90,84H92V86H90zM96,84H98V86H96zM98,84H100V86H98zM100,84H102V86H100zM102,84H104V86H102zM104,84H106V86H104zM106,84H108V86H106zM120,84H122V86H120zM122,84H124V86H122zM130,84H132V86H130zM134,84H136V86H134zM136,84H138V86H136zM142,84H144V86H142zM144,84H146V86H144zM150,84H152V86H150zM152,84H154V86H152zM4,86H6V88H4zM10,86H12V88H10zM12,86H14V88H12zM14,86H16V88H14zM20,86H22V88H20zM26,86H28V88H26zM28,86H30V88H28zM30,86H32V88H30zM32,86H34V88H32zM36,86H38V88H36zM38,86H40V88H38zM40,86H42V88H40zM48,86H50V88H48zM52,86H54V88H52zM54,86H56V88H54zM60,86H62V88H60zM68,86H70V88H68zM72,86H74V88H72zM74,86H76V88H74zM78,86H80V88H78zM80,86H82V88H80zM82,86H84V88H82zM92,86H94V88H92zM96,86H98V88H96zM100,86H102V88H100zM102,86H104V88H102zM104,86H106V88H104zM108,86H110V88H108zM110,86H112V88H110zM112,86H114V88H112zM116,86H118V88H116zM120,86H122V88H120zM122,86H124V88H122zM128,86H130V88H128zM134,86H136V88H134zM140,86H142V88H140zM144,86H146V88H144zM146,86H148V88H146zM148,86H150V88H148zM152,86H154V88H152zM154,86H156V88H154zM156,86H158V88H156zM160,86H162V88H160zM4,88H6V90H4zM10,88H12V90H10zM14,88H16V90H14zM16,88H18V90H16zM24,88H26V90H24zM28,88H30V90H28zM30,88H32V90H30zM32,88H34V90H32zM34,88H36V90H34zM40,88H42V90H40zM46,88H48V90H46zM50,88H52V90H50zM52,88H54V90H52zM54,88H56V90H54zM56,88H58V90H56zM58,88H60V90H58zM66,88H68V90H66zM80,88H82V90H80zM82,88H84V90H82zM84,88H86V90H84zM86,88H88V90H86zM90,88H92V90H90zM92,88H94V90H92zM94,88H96V90H94zM98,88H100V90H98zM104,88H106V90H104zM106,88H108V90H106zM108,88H110V90H108zM114,88H116V90H114zM122,88H124V90H122zM128,88H130V90H128zM130,88H132V90H130zM132,88H134V90H132zM138,88H140V90H138zM144,88H146V90H144zM148,88H150V90H148zM156,88H158V90H156zM160,88H162V90H160zM164,88H166V90H164zM6,90H8V92H6zM10,90H12V92H10zM12,90H14V92H12zM18,90H20V92H18zM24,90H26V92H24zM26,90H28V92H26zM30,90H32V92H30zM32,90H34V92H32zM34,90H36V92H34zM36,90H38V92H36zM38,90H40V92H38zM42,90H44V92H42zM44,90H46V92H44zM48,90H50V92H48zM50,90H52V92H50zM52,90H54V92H52zM54,90H56V92H54zM60,90H62V92H60zM64,90H66V92H64zM70,90H72V92H70zM74,90H76V92H74zM76,90H78V92H76zM80,90H82V92H80zM82,90H84V92H82zM90,90H92V92H90zM92,90H94V92H92zM98,90H100V92H98zM100,90H102V92H100zM106,90H108V92H106zM108,90H110V92H108zM112,90H114V92H112zM114,90H116V92H114zM118,90H120V92H118zM122,90H124V92H122zM126,90H128V92H126zM130,90H132V92H130zM132,90H134V92H132zM144,90H146V92H144zM146,90H148V92H146zM148,90H150V92H148zM150,90H152V92H150zM152,90H154V92H152zM158,90H160V92H158zM160,90H162V92H160zM6,92H8V94H6zM14,92H16V94H14zM16,92H18V94H16zM24,92H26V94H24zM30,92H32V94H30zM32,92H34V94H32zM34,92H36V94H34zM38,92H40V94H38zM40,92H42V94H40zM46,92H48V94H46zM50,92H52V94H50zM56,92H58V94H56zM60,92H62V94H60zM64,92H66V94H64zM66,92H68V94H66zM68,92H70V94H68zM70,92H72V94H70zM72,92H74V94H72zM82,92H84V94H82zM84,92H86V94H84zM88,92H90V94H88zM92,92H94V94H92zM94,92H96V94H94zM98,92H100V94H98zM102,92H104V94H102zM106,92H108V94H106zM110,92H112V94H110zM112,92H114V94H112zM114,92H116V94H114zM116,92H118V94H116zM120,92H122V94H120zM126,92H128V94H126zM128,92H130V94H128zM130,92H132V94H130zM132,92H134V94H132zM138,92H140V94H138zM142,92H144V94H142zM146,92H148V94H146zM148,92H150V94H148zM152,92H154V94H152zM156,92H158V94H156zM160,92H162V94H160zM162,92H164V94H162zM6,94H8V96H6zM12,94H14V96H12zM14,94H16V96H14zM18,94H20V96H18zM22,94H24V96H22zM26,94H28V96H26zM30,94H32V96H30zM32,94H34V96H32zM36,94H38V96H36zM40,94H42V96H40zM44,94H46V96H44zM46,94H48V96H46zM50,94H52V96H50zM52,94H54V96H52zM58,94H60V96H58zM64,94H66V96H64zM72,94H74V96H72zM74,94H76V96H74zM76,94H78V96H76zM78,94H80V96H78zM84,94H86V96H84zM94,94H96V96H94zM96,94H98V96H96zM100,94H102V96H100zM102,94H104V96H102zM104,94H106V96H104zM106,94H108V96H106zM114,94H116V96H114zM122,94H124V96H122zM130,94H132V96H130zM152,94H154V96H152zM154,94H156V96H154zM156,94H158V96H156zM158,94H160V96H158zM164,94H166V96H164zM6,96H8V98H6zM8,96H10V98H8zM16,96H18V98H16zM18,96H20V98H18zM20,96H22V98H20zM22,96H24V98H22zM26,96H28V98H26zM32,96H34V98H32zM40,96H42V98H40zM44,96H46V98H44zM48,96H50V98H48zM54,96H56V98H54zM62,96H64V98H62zM66,96H68V98H66zM68,96H70V98H68zM70,96H72V98H70zM72,96H74V98H72zM74,96H76V98H74zM76,96H78V98H76zM80,96H82V98H80zM86,96H88V98H86zM88,96H90V98H88zM90,96H92V98H90zM96,96H98V98H96zM100,96H102V98H100zM102,96H104V98H102zM104,96H106V98H104zM114,96H116V98H114zM116,96H118V98H116zM118,96H120V98H118zM124,96H126V98H124zM126,96H128V98H126zM132,96H134V98H132zM140,96H142V98H140zM144,96H146V98H144zM146,96H148V98H146zM150,96H152V98H150zM152,96H154V98H152zM156,96H158V98H156zM158,96H160V98H158zM162,96H164V98H162zM164,96H166V98H164zM4,98H6V100H4zM10,98H12V100H10zM20,98H22V100H20zM22,98H24V100H22zM26,98H28V100H26zM28,98H30V100H28zM30,98H32V100H30zM32,98H34V100H32zM34,98H36V100H34zM38,98H40V100H38zM42,98H44V100H42zM44,98H46V100H44zM46,98H48V100H46zM50,98H52V100H50zM52,98H54V100H52zM58,98H60V100H58zM60,98H62V100H60zM62,98H64V100H62zM68,98H70V100H68zM74,98H76V100H74zM84,98H86V100H84zM86,98H88V100H86zM90,98H92V100H90zM92,98H94V100H92zM94,98H96V100H94zM96,98H98V100H96zM98,98H100V100H98zM102,98H104V100H102zM104,98H106V100H104zM112,98H114V100H112zM114,98H116V100H114zM116,98H118V100H116zM118,98H120V100H118zM120,98H122V100H120zM126,98H128V100H126zM130,98H132V100H130zM134,98H136V100H134zM138,98H140V100H138zM140,98H142V100H140zM144,98H146V100H144zM146,98H148V100H146zM148,98H150V100H148zM150,98H152V100H150zM160,98H162V100H160zM162,98H164V100H162zM4,100H6V102H4zM8,100H10V102H8zM10,100H12V102H10zM12,100H14V102H12zM14,100H16V102H14zM16,100H18V102H16zM18,100H20V102H18zM20,100H22V102H20zM22,100H24V102H22zM24,100H26V102H24zM26,100H28V102H26zM28,100H30V102H28zM36,100H38V102H36zM38,100H40V102H38zM40,100H42V102H40zM44,100H46V102H44zM52,100H54V102H52zM54,100H56V102H54zM56,100H58V102H56zM58,100H60V102H58zM60,100H62V102H60zM62,100H64V102H62zM64,100H66V102H64zM66,100H68V102H66zM68,100H70V102H68zM76,100H78V102H76zM86,100H88V102H86zM88,100H90V102H88zM90,100H92V102H90zM94,100H96V102H94zM100,100H102V102H100zM102,100H104V102H102zM104,100H106V102H104zM106,100H108V102H106zM108,100H110V102H108zM114,100H116V102H114zM118,100H120V102H118zM120,100H122V102H120zM122,100H124V102H122zM130,100H132V102H130zM134,100H136V102H134zM138,100H140V102H138zM146,100H148V102H146zM148,100H150V102H148zM150,100H152V102H150zM152,100H154V102H152zM154,100H156V102H154zM156,100H158V102H156zM158,100H160V102H158zM160,100H162V102H160zM164,100H166V102H164zM4,102H6V104H4zM12,102H14V104H12zM20,102H22V104H20zM26,102H28V104H26zM30,102H32V104H30zM34,102H36V104H34zM36,102H38V104H36zM38,102H40V104H38zM44,102H46V104H44zM48,102H50V104H48zM50,102H52V104H50zM52,102H54V104H52zM60,102H62V104H60zM66,102H68V104H66zM68,102H70V104H68zM70,102H72V104H70zM72,102H74V104H72zM78,102H80V104H78zM80,102H82V104H80zM86,102H88V104H86zM88,102H90V104H88zM90,102H92V104H90zM92,102H94V104H92zM96,102H98V104H96zM98,102H100V104H98zM100,102H102V104H100zM108,102H110V104H108zM110,102H112V104H110zM112,102H114V104H112zM114,102H116V104H114zM122,102H124V104H122zM124,102H126V104H124zM126,102H128V104H126zM128,102H130V104H128zM132,102H134V104H132zM138,102H140V104H138zM144,102H146V104H144zM148,102H150V104H148zM156,102H158V104H156zM158,102H160V104H158zM160,102H162V104H160zM162,102H164V104H162zM12,104H14V106H12zM16,104H18V106H16zM20,104H22V106H20zM24,104H26V106H24zM26,104H28V106H26zM30,104H32V106H30zM32,104H34V106H32zM36,104H38V106H36zM40,104H42V106H40zM42,104H44V106H42zM44,104H46V106H44zM52,104H54V106H52zM56,104H58V106H56zM60,104H62V106H60zM64,104H66V106H64zM66,104H68V106H66zM68,104H70V106H68zM70,104H72V106H70zM76,104H78V106H76zM78,104H80V106H78zM84,104H86V106H84zM86,104H88V106H86zM88,104H90V106H88zM94,104H96V106H94zM100,104H102V106H100zM104,104H106V106H104zM108,104H110V106H108zM114,104H116V106H114zM128,104H130V106H128zM130,104H132V106H130zM132,104H134V106H132zM134,104H136V106H134zM140,104H142V106H140zM146,104H148V106H146zM148,104H150V106H148zM152,104H154V106H152zM156,104H158V106H156zM158,104H160V106H158zM160,104H162V106H160zM162,104H164V106H162zM4,106H6V108H4zM10,106H12V108H10zM12,106H14V108H12zM20,106H22V108H20zM22,106H24V108H22zM24,106H26V108H24zM26,106H28V108H26zM28,106H30V108H28zM30,106H32V108H30zM34,106H36V108H34zM36,106H38V108H36zM38,106H40V108H38zM40,106H42V108H40zM46,106H48V108H46zM48,106H50V108H48zM52,106H54V108H52zM60,106H62V108H60zM64,106H66V108H64zM66,106H68V108H66zM70,106H72V108H70zM74,106H76V108H74zM78,106H80V108H78zM84,106H86V108H84zM90,106H92V108H90zM96,106H98V108H96zM98,106H100V108H98zM100,106H102V108H100zM108,106H110V108H108zM112,106H114V108H112zM116,106H118V108H116zM118,106H120V108H118zM122,106H124V108H122zM126,106H128V108H126zM128,106H130V108H128zM130,106H132V108H130zM134,106H136V108H134zM136,106H138V108H136zM138,106H140V108H138zM144,106H146V108H144zM148,106H150V108H148zM156,106H158V108H156zM158,106H160V108H158zM160,106H162V108H160zM162,106H164V108H162zM6,108H8V110H6zM10,108H12V110H10zM12,108H14V110H12zM14,108H16V110H14zM16,108H18V110H16zM18,108H20V110H18zM20,108H22V110H20zM24,108H26V110H24zM30,108H32V110H30zM32,108H34V110H32zM42,108H44V110H42zM44,108H46V110H44zM50,108H52V110H50zM52,108H54V110H52zM54,108H56V110H54zM56,108H58V110H56zM58,108H60V110H58zM60,108H62V110H60zM68,108H70V110H68zM74,108H76V110H74zM76,108H78V110H76zM78,108H80V110H78zM86,108H88V110H86zM90,108H92V110H90zM92,108H94V110H92zM100,108H102V110H100zM102,108H104V110H102zM104,108H106V110H104zM106,108H108V110H106zM108,108H110V110H108zM110,108H112V110H110zM112,108H114V110H112zM122,108H124V110H122zM126,108H128V110H126zM130,108H132V110H130zM134,108H136V110H134zM140,108H142V110H140zM142,108H144V110H142zM144,108H146V110H144zM146,108H148V110H146zM148,108H150V110H148zM150,108H152V110H150zM152,108H154V110H152zM154,108H156V110H154zM156,108H158V110H156zM162,108H164V110H162zM4,110H6V112H4zM6,110H8V112H6zM12,110H14V112H12zM18,110H20V112H18zM20,110H22V112H20zM22,110H24V112H22zM28,110H30V112H28zM30,110H32V112H30zM34,110H36V112H34zM36,110H38V112H36zM38,110H40V112H38zM40,110H42V112H40zM44,110H46V112H44zM48,110H50V112H48zM52,110H54V112H52zM60,110H62V112H60zM64,110H66V112H64zM66,110H68V112H66zM68,110H70V112H68zM72,110H74V112H72zM74,110H76V112H74zM80,110H82V112H80zM84,110H86V112H84zM92,110H94V112H92zM100,110H102V112H100zM102,110H104V112H102zM110,110H112V112H110zM112,110H114V112H112zM116,110H118V112H116zM120,110H122V112H120zM122,110H124V112H122zM128,110H130V112H128zM134,110H136V112H134zM138,110H140V112H138zM140,110H142V112H140zM144,110H146V112H144zM156,110H158V112H156zM158,110H160V112H158zM160,110H162V112H160zM162,110H164V112H162zM164,110H166V112H164zM6,112H8V114H6zM14,112H16V114H14zM16,112H18V114H16zM20,112H22V114H20zM38,112H40V114H38zM40,112H42V114H40zM42,112H44V114H42zM48,112H50V114H48zM52,112H54V114H52zM56,112H58V114H56zM68,112H70V114H68zM78,112H80V114H78zM84,112H86V114H84zM86,112H88V114H86zM88,112H90V114H88zM94,112H96V114H94zM96,112H98V114H96zM102,112H104V114H102zM108,112H110V114H108zM110,112H112V114H110zM112,112H114V114H112zM118,112H120V114H118zM122,112H124V114H122zM124,112H126V114H124zM128,112H130V114H128zM130,112H132V114H130zM146,112H148V114H146zM148,112H150V114H148zM152,112H154V114H152zM154,112H156V114H154zM158,112H160V114H158zM162,112H164V114H162zM164,112H166V114H164zM4,114H6V116H4zM8,114H10V116H8zM18,114H20V116H18zM20,114H22V116H20zM22,114H24V116H22zM24,114H26V116H24zM26,114H28V116H26zM28,114H30V116H28zM32,114H34V116H32zM40,114H42V116H40zM42,114H44V116H42zM48,114H50V116H48zM50,114H52V116H50zM56,114H58V116H56zM62,114H64V116H62zM64,114H66V116H64zM66,114H68V116H66zM70,114H72V116H70zM72,114H74V116H72zM78,114H80V116H78zM80,114H82V116H80zM84,114H86V116H84zM88,114H90V116H88zM94,114H96V116H94zM102,114H104V116H102zM104,114H106V116H104zM110,114H112V116H110zM126,114H128V116H126zM128,114H130V116H128zM130,114H132V116H130zM132,114H134V116H132zM136,114H138V116H136zM138,114H140V116H138zM144,114H146V116H144zM146,114H148V116H146zM148,114H150V116H148zM150,114H152V116H150zM152,114H154V116H152zM156,114H158V116H156zM158,114H160V116H158zM160,114H162V116H160zM4,116H6V118H4zM6,116H8V118H6zM8,116H10V118H8zM10,116H12V118H10zM16,116H18V118H16zM20,116H22V118H20zM22,116H24V118H22zM24,116H26V118H24zM38,116H40V118H38zM42,116H44V118H42zM44,116H46V118H44zM48,116H50V118H48zM60,116H62V118H60zM64,116H66V118H64zM66,116H68V118H66zM68,116H70V118H68zM74,116H76V118H74zM78,116H80V118H78zM80,116H82V118H80zM82,116H84V118H82zM86,116H88V118H86zM88,116H90V118H88zM98,116H100V118H98zM102,116H104V118H102zM104,116H106V118H104zM106,116H108V118H106zM108,116H110V118H108zM112,116H114V118H112zM114,116H116V118H114zM116,116H118V118H116zM118,116H120V118H118zM126,116H128V118H126zM128,116H130V118H128zM130,116H132V118H130zM132,116H134V118H132zM138,116H140V118H138zM140,116H142V118H140zM142,116H144V118H142zM150,116H152V118H150zM156,116H158V118H156zM160,116H162V118H160zM6,118H8V120H6zM8,118H10V120H8zM10,118H12V120H10zM12,118H14V120H12zM14,118H16V120H14zM18,118H20V120H18zM22,118H24V120H22zM24,118H26V120H24zM28,118H30V120H28zM30,118H32V120H30zM34,118H36V120H34zM40,118H42V120H40zM42,118H44V120H42zM44,118H46V120H44zM46,118H48V120H46zM60,118H62V120H60zM62,118H64V120H62zM72,118H74V120H72zM78,118H80V120H78zM80,118H82V120H80zM90,118H92V120H90zM92,118H94V120H92zM94,118H96V120H94zM98,118H100V120H98zM102,118H104V120H102zM106,118H108V120H106zM108,118H110V120H108zM110,118H112V120H110zM112,118H114V120H112zM130,118H132V120H130zM132,118H134V120H132zM138,118H140V120H138zM140,118H142V120H140zM146,118H148V120H146zM150,118H152V120H150zM154,118H156V120H154zM156,118H158V120H156zM158,118H160V120H158zM4,120H6V122H4zM12,120H14V122H12zM16,120H18V122H16zM26,120H28V122H26zM38,120H40V122H38zM42,120H44V122H42zM44,120H46V122H44zM46,120H48V122H46zM50,120H52V122H50zM54,120H56V122H54zM56,120H58V122H56zM58,120H60V122H58zM66,120H68V122H66zM68,120H70V122H68zM70,120H72V122H70zM76,120H78V122H76zM84,120H86V122H84zM88,120H90V122H88zM90,120H92V122H90zM96,120H98V122H96zM98,120H100V122H98zM106,120H108V122H106zM108,120H110V122H108zM112,120H114V122H112zM120,120H122V122H120zM126,120H128V122H126zM130,120H132V122H130zM138,120H140V122H138zM144,120H146V122H144zM146,120H148V122H146zM150,120H152V122H150zM156,120H158V122H156zM158,120H160V122H158zM162,120H164V122H162zM164,120H166V122H164zM10,122H12V124H10zM18,122H20V124H18zM22,122H24V124H22zM24,122H26V124H24zM26,122H28V124H26zM30,122H32V124H30zM34,122H36V124H34zM36,122H38V124H36zM46,122H48V124H46zM48,122H50V124H48zM52,122H54V124H52zM54,122H56V124H54zM56,122H58V124H56zM58,122H60V124H58zM60,122H62V124H60zM64,122H66V124H64zM76,122H78V124H76zM82,122H84V124H82zM84,122H86V124H84zM90,122H92V124H90zM92,122H94V124H92zM94,122H96V124H94zM96,122H98V124H96zM98,122H100V124H98zM102,122H104V124H102zM104,122H106V124H104zM108,122H110V124H108zM112,122H114V124H112zM114,122H116V124H114zM118,122H120V124H118zM120,122H122V124H120zM124,122H126V124H124zM130,122H132V124H130zM132,122H134V124H132zM134,122H136V124H134zM138,122H140V124H138zM142,122H144V124H142zM144,122H146V124H144zM146,122H148V124H146zM148,122H150V124H148zM150,122H152V124H150zM152,122H154V124H152zM160,122H162V124H160zM162,122H164V124H162zM164,122H166V124H164zM12,124H14V126H12zM14,124H16V126H14zM16,124H18V126H16zM18,124H20V126H18zM20,124H22V126H20zM22,124H24V126H22zM24,124H26V126H24zM30,124H32V126H30zM42,124H44V126H42zM44,124H46V126H44zM48,124H50V126H48zM50,124H52V126H50zM54,124H56V126H54zM64,124H66V126H64zM66,124H68V126H66zM70,124H72V126H70zM72,124H74V126H72zM74,124H76V126H74zM76,124H78V126H76zM78,124H80V126H78zM82,124H84V126H82zM94,124H96V126H94zM96,124H98V126H96zM102,124H104V126H102zM110,124H112V126H110zM114,124H116V126H114zM116,124H118V126H116zM118,124H120V126H118zM122,124H124V126H122zM124,124H126V126H124zM126,124H128V126H126zM128,124H130V126H128zM130,124H132V126H130zM134,124H136V126H134zM138,124H140V126H138zM140,124H142V126H140zM146,124H148V126H146zM152,124H154V126H152zM154,124H156V126H154zM156,124H158V126H156zM162,124H164V126H162zM164,124H166V126H164zM4,126H6V128H4zM14,126H16V128H14zM18,126H20V128H18zM20,126H22V128H20zM24,126H26V128H24zM26,126H28V128H26zM32,126H34V128H32zM36,126H38V128H36zM42,126H44V128H42zM46,126H48V128H46zM48,126H50V128H48zM58,126H60V128H58zM60,126H62V128H60zM62,126H64V128H62zM64,126H66V128H64zM72,126H74V128H72zM80,126H82V128H80zM86,126H88V128H86zM98,126H100V128H98zM100,126H102V128H100zM112,126H114V128H112zM120,126H122V128H120zM124,126H126V128H124zM126,126H128V128H126zM130,126H132V128H130zM136,126H138V128H136zM146,126H148V128H146zM150,126H152V128H150zM152,126H154V128H152zM156,126H158V128H156zM158,126H160V128H158zM162,126H164V128H162zM164,126H166V128H164zM4,128H6V130H4zM6,128H8V130H6zM10,128H12V130H10zM16,128H18V130H16zM18,128H20V130H18zM26,128H28V130H26zM30,128H32V130H30zM34,128H36V130H34zM38,128H40V130H38zM40,128H42V130H40zM42,128H44V130H42zM44,128H46V130H44zM46,128H48V130H46zM54,128H56V130H54zM58,128H60V130H58zM64,128H66V130H64zM70,128H72V130H70zM74,128H76V130H74zM76,128H78V130H76zM80,128H82V130H80zM84,128H86V130H84zM86,128H88V130H86zM88,128H90V130H88zM96,128H98V130H96zM98,128H100V130H98zM118,128H120V130H118zM120,128H122V130H120zM124,128H126V130H124zM126,128H128V130H126zM128,128H130V130H128zM130,128H132V130H130zM132,128H134V130H132zM134,128H136V130H134zM138,128H140V130H138zM140,128H142V130H140zM142,128H144V130H142zM148,128H150V130H148zM150,128H152V130H150zM152,128H154V130H152zM154,128H156V130H154zM158,128H160V130H158zM160,128H162V130H160zM12,130H14V132H12zM24,130H26V132H24zM26,130H28V132H26zM32,130H34V132H32zM34,130H36V132H34zM36,130H38V132H36zM44,130H46V132H44zM46,130H48V132H46zM48,130H50V132H48zM66,130H68V132H66zM70,130H72V132H70zM72,130H74V132H72zM74,130H76V132H74zM76,130H78V132H76zM80,130H82V132H80zM82,130H84V132H82zM86,130H88V132H86zM88,130H90V132H88zM92,130H94V132H92zM96,130H98V132H96zM98,130H100V132H98zM100,130H102V132H100zM106,130H108V132H106zM108,130H110V132H108zM112,130H114V132H112zM116,130H118V132H116zM120,130H122V132H120zM122,130H124V132H122zM124,130H126V132H124zM136,130H138V132H136zM138,130H140V132H138zM140,130H142V132H140zM142,130H144V132H142zM144,130H146V132H144zM146,130H148V132H146zM156,130H158V132H156zM160,130H162V132H160zM4,132H6V134H4zM6,132H8V134H6zM12,132H14V134H12zM14,132H16V134H14zM16,132H18V134H16zM18,132H20V134H18zM22,132H24V134H22zM24,132H26V134H24zM30,132H32V134H30zM36,132H38V134H36zM38,132H40V134H38zM44,132H46V134H44zM46,132H48V134H46zM52,132H54V134H52zM58,132H60V134H58zM72,132H74V134H72zM74,132H76V134H74zM78,132H80V134H78zM82,132H84V134H82zM84,132H86V134H84zM86,132H88V134H86zM88,132H90V134H88zM90,132H92V134H90zM98,132H100V134H98zM100,132H102V134H100zM108,132H110V134H108zM110,132H112V134H110zM112,132H114V134H112zM120,132H122V134H120zM122,132H124V134H122zM124,132H126V134H124zM128,132H130V134H128zM130,132H132V134H130zM136,132H138V134H136zM142,132H144V134H142zM148,132H150V134H148zM150,132H152V134H150zM152,132H154V134H152zM154,132H156V134H154zM156,132H158V134H156zM158,132H160V134H158zM160,132H162V134H160zM162,132H164V134H162zM164,132H166V134H164zM4,134H6V136H4zM6,134H8V136H6zM8,134H10V136H8zM10,134H12V136H10zM20,134H22V136H20zM22,134H24V136H22zM30,134H32V136H30zM32,134H34V136H32zM36,134H38V136H36zM38,134H40V136H38zM46,134H48V136H46zM50,134H52V136H50zM52,134H54V136H52zM56,134H58V136H56zM58,134H60V136H58zM64,134H66V136H64zM68,134H70V136H68zM72,134H74V136H72zM78,134H80V136H78zM84,134H86V136H84zM88,134H90V136H88zM90,134H92V136H90zM92,134H94V136H92zM94,134H96V136H94zM100,134H102V136H100zM104,134H106V136H104zM108,134H110V136H108zM110,134H112V136H110zM112,134H114V136H112zM116,134H118V136H116zM120,134H122V136H120zM122,134H124V136H122zM128,134H130V136H128zM130,134H132V136H130zM134,134H136V136H134zM140,134H142V136H140zM152,134H154V136H152zM154,134H156V136H154zM156,134H158V136H156zM158,134H160V136H158zM162,134H164V136H162zM164,134H166V136H164zM4,136H6V138H4zM6,136H8V138H6zM8,136H10V138H8zM10,136H12V138H10zM14,136H16V138H14zM16,136H18V138H16zM18,136H20V138H18zM22,136H24V138H22zM26,136H28V138H26zM34,136H36V138H34zM36,136H38V138H36zM38,136H40V138H38zM40,136H42V138H40zM42,136H44V138H42zM44,136H46V138H44zM52,136H54V138H52zM54,136H56V138H54zM56,136H58V138H56zM66,136H68V138H66zM70,136H72V138H70zM72,136H74V138H72zM74,136H76V138H74zM76,136H78V138H76zM84,136H86V138H84zM86,136H88V138H86zM90,136H92V138H90zM92,136H94V138H92zM94,136H96V138H94zM104,136H106V138H104zM108,136H110V138H108zM116,136H118V138H116zM118,136H120V138H118zM124,136H126V138H124zM126,136H128V138H126zM130,136H132V138H130zM132,136H134V138H132zM134,136H136V138H134zM138,136H140V138H138zM142,136H144V138H142zM146,136H148V138H146zM148,136H150V138H148zM150,136H152V138H150zM156,136H158V138H156zM160,136H162V138H160zM162,136H164V138H162zM164,136H166V138H164zM4,138H6V140H4zM6,138H8V140H6zM8,138H10V140H8zM10,138H12V140H10zM12,138H14V140H12zM14,138H16V140H14zM18,138H20V140H18zM20,138H22V140H20zM22,138H24V140H22zM24,138H26V140H24zM26,138H28V140H26zM28,138H30V140H28zM30,138H32V140H30zM34,138H36V140H34zM38,138H40V140H38zM44,138H46V140H44zM46,138H48V140H46zM48,138H50V140H48zM50,138H52V140H50zM52,138H54V140H52zM56,138H58V140H56zM58,138H60V140H58zM60,138H62V140H60zM62,138H64V140H62zM64,138H66V140H64zM70,138H72V140H70zM76,138H78V140H76zM78,138H80V140H78zM80,138H82V140H80zM84,138H86V140H84zM86,138H88V140H86zM90,138H92V140H90zM92,138H94V140H92zM100,138H102V140H100zM102,138H104V140H102zM104,138H106V140H104zM106,138H108V140H106zM108,138H110V140H108zM110,138H112V140H110zM114,138H116V140H114zM116,138H118V140H116zM118,138H120V140H118zM122,138H124V140H122zM126,138H128V140H126zM132,138H134V140H132zM134,138H136V140H134zM136,138H138V140H136zM142,138H144V140H142zM146,138H148V140H146zM148,138H150V140H148zM152,138H154V140H152zM154,138H156V140H154zM158,138H160V140H158zM160,138H162V140H160zM162,138H164V140H162zM4,140H6V142H4zM6,140H8V142H6zM8,140H10V142H8zM12,140H14V142H12zM16,140H18V142H16zM20,140H22V142H20zM22,140H24V142H22zM26,140H28V142H26zM36,140H38V142H36zM38,140H40V142H38zM40,140H42V142H40zM46,140H48V142H46zM58,140H60V142H58zM60,140H62V142H60zM62,140H64V142H62zM78,140H80V142H78zM80,140H82V142H80zM82,140H84V142H82zM86,140H88V142H86zM90,140H92V142H90zM94,140H96V142H94zM100,140H102V142H100zM108,140H110V142H108zM112,140H114V142H112zM114,140H116V142H114zM116,140H118V142H116zM118,140H120V142H118zM120,140H122V142H120zM124,140H126V142H124zM126,140H128V142H126zM130,140H132V142H130zM132,140H134V142H132zM136,140H138V142H136zM138,140H140V142H138zM140,140H142V142H140zM148,140H150V142H148zM154,140H156V142H154zM156,140H158V142H156zM160,140H162V142H160zM162,140H164V142H162zM164,140H166V142H164zM4,142H6V144H4zM8,142H10V144H8zM10,142H12V144H10zM14,142H16V144H14zM20,142H22V144H20zM22,142H24V144H22zM24,142H26V144H24zM26,142H28V144H26zM28,142H30V144H28zM32,142H34V144H32zM40,142H42V144H40zM42,142H44V144H42zM50,142H52V144H50zM52,142H54V144H52zM58,142H60V144H58zM60,142H62V144H60zM64,142H66V144H64zM66,142H68V144H66zM68,142H70V144H68zM70,142H72V144H70zM74,142H76V144H74zM82,142H84V144H82zM92,142H94V144H92zM96,142H98V144H96zM106,142H108V144H106zM108,142H110V144H108zM128,142H130V144H128zM130,142H132V144H130zM140,142H142V144H140zM146,142H148V144H146zM150,142H152V144H150zM154,142H156V144H154zM156,142H158V144H156zM158,142H160V144H158zM160,142H162V144H160zM164,142H166V144H164zM6,144H8V146H6zM8,144H10V146H8zM10,144H12V146H10zM16,144H18V146H16zM22,144H24V146H22zM24,144H26V146H24zM26,144H28V146H26zM28,144H30V146H28zM30,144H32V146H30zM32,144H34V146H32zM36,144H38V146H36zM52,144H54V146H52zM54,144H56V146H54zM58,144H60V146H58zM64,144H66V146H64zM66,144H68V146H66zM68,144H70V146H68zM70,144H72V146H70zM74,144H76V146H74zM78,144H80V146H78zM80,144H82V146H80zM82,144H84V146H82zM84,144H86V146H84zM94,144H96V146H94zM98,144H100V146H98zM102,144H104V146H102zM104,144H106V146H104zM110,144H112V146H110zM112,144H114V146H112zM114,144H116V146H114zM116,144H118V146H116zM122,144H124V146H122zM124,144H126V146H124zM128,144H130V146H128zM130,144H132V146H130zM136,144H138V146H136zM142,144H144V146H142zM144,144H146V146H144zM146,144H148V146H146zM154,144H156V146H154zM160,144H162V146H160zM162,144H164V146H162zM164,144H166V146H164zM6,146H8V148H6zM14,146H16V148H14zM22,146H24V148H22zM28,146H30V148H28zM32,146H34V148H32zM42,146H44V148H42zM44,146H46V148H44zM46,146H48V148H46zM56,146H58V148H56zM64,146H66V148H64zM66,146H68V148H66zM68,146H70V148H68zM72,146H74V148H72zM74,146H76V148H74zM78,146H80V148H78zM80,146H82V148H80zM84,146H86V148H84zM92,146H94V148H92zM94,146H96V148H94zM108,146H110V148H108zM114,146H116V148H114zM118,146H120V148H118zM122,146H124V148H122zM130,146H132V148H130zM138,146H140V148H138zM140,146H142V148H140zM144,146H146V148H144zM148,146H150V148H148zM152,146H154V148H152zM156,146H158V148H156zM160,146H162V148H160zM164,146H166V148H164zM6,148H8V150H6zM8,148H10V150H8zM10,148H12V150H10zM16,148H18V150H16zM20,148H22V150H20zM22,148H24V150H22zM24,148H26V150H24zM28,148H30V150H28zM30,148H32V150H30zM32,148H34V150H32zM34,148H36V150H34zM38,148H40V150H38zM40,148H42V150H40zM46,148H48V150H46zM48,148H50V150H48zM50,148H52V150H50zM52,148H54V150H52zM54,148H56V150H54zM56,148H58V150H56zM58,148H60V150H58zM60,148H62V150H60zM62,148H64V150H62zM66,148H68V150H66zM68,148H70V150H68zM72,148H74V150H72zM78,148H80V150H78zM94,148H96V150H94zM100,148H102V150H100zM102,148H104V150H102zM104,148H106V150H104zM106,148H108V150H106zM108,148H110V150H108zM110,148H112V150H110zM114,148H116V150H114zM122,148H124V150H122zM124,148H126V150H124zM128,148H130V150H128zM130,148H132V150H130zM134,148H136V150H134zM136,148H138V150H136zM138,148H140V150H138zM142,148H144V150H142zM144,148H146V150H144zM146,148H148V150H146zM148,148H150V150H148zM150,148H152V150H150zM152,148H154V150H152zM154,148H156V150H154zM156,148H158V150H156zM160,148H162V150H160zM162,148H164V150H162zM20,150H22V152H20zM24,150H26V152H24zM26,150H28V152H26zM30,150H32V152H30zM34,150H36V152H34zM52,150H54V152H52zM60,150H62V152H60zM64,150H66V152H64zM82,150H84V152H82zM84,150H86V152H84zM92,150H94V152H92zM94,150H96V152H94zM96,150H98V152H96zM100,150H102V152H100zM108,150H110V152H108zM110,150H112V152H110zM124,150H126V152H124zM138,150H140V152H138zM140,150H142V152H140zM148,150H150V152H148zM156,150H158V152H156zM158,150H160V152H158zM160,150H162V152H160zM164,150H166V152H164zM4,152H6V154H4zM6,152H8V154H6zM8,152H10V154H8zM10,152H12V154H10zM12,152H14V154H12zM14,152H16V154H14zM16,152H18V154H16zM20,152H22V154H20zM24,152H26V154H24zM28,152H30V154H28zM30,152H32V154H30zM32,152H34V154H32zM36,152H38V154H36zM38,152H40V154H38zM42,152H44V154H42zM52,152H54V154H52zM56,152H58V154H56zM60,152H62V154H60zM70,152H72V154H70zM84,152H86V154H84zM96,152H98V154H96zM100,152H102V154H100zM104,152H106V154H104zM108,152H110V154H108zM110,152H112V154H110zM116,152H118V154H116zM118,152H120V154H118zM124,152H126V154H124zM130,152H132V154H130zM138,152H140V154H138zM142,152H144V154H142zM148,152H150V154H148zM152,152H154V154H152zM156,152H158V154H156zM158,152H160V154H158zM160,152H162V154H160zM4,154H6V156H4zM16,154H18V156H16zM24,154H26V156H24zM38,154H40V156H38zM42,154H44V156H42zM44,154H46V156H44zM46,154H48V156H46zM52,154H54V156H52zM60,154H62V156H60zM66,154H68V156H66zM68,154H70V156H68zM72,154H74V156H72zM74,154H76V156H74zM78,154H80V156H78zM80,154H82V156H80zM82,154H84V156H82zM84,154H86V156H84zM88,154H90V156H88zM92,154H94V156H92zM100,154H102V156H100zM108,154H110V156H108zM110,154H112V156H110zM112,154H114V156H112zM114,154H116V156H114zM124,154H126V156H124zM126,154H128V156H126zM128,154H130V156H128zM130,154H132V156H130zM132,154H134V156H132zM134,154H136V156H134zM144,154H146V156H144zM146,154H148V156H146zM148,154H150V156H148zM156,154H158V156H156zM158,154H160V156H158zM160,154H162V156H160zM4,156H6V158H4zM8,156H10V158H8zM10,156H12V158H10zM12,156H14V158H12zM16,156H18V158H16zM20,156H22V158H20zM26,156H28V158H26zM32,156H34V158H32zM34,156H36V158H34zM46,156H48V158H46zM52,156H54V158H52zM54,156H56V158H54zM56,156H58V158H56zM58,156H60V158H58zM60,156H62V158H60zM70,156H72V158H70zM76,156H78V158H76zM78,156H80V158H78zM82,156H84V158H82zM84,156H86V158H84zM88,156H90V158H88zM90,156H92V158H90zM98,156H100V158H98zM100,156H102V158H100zM102,156H104V158H102zM104,156H106V158H104zM106,156H108V158H106zM108,156H110V158H108zM110,156H112V158H110zM118,156H120V158H118zM122,156H124V158H122zM124,156H126V158H124zM126,156H128V158H126zM128,156H130V158H128zM130,156H132V158H130zM132,156H134V158H132zM134,156H136V158H134zM136,156H138V158H136zM138,156H140V158H138zM140,156H142V158H140zM142,156H144V158H142zM146,156H148V158H146zM148,156H150V158H148zM150,156H152V158H150zM152,156H154V158H152zM154,156H156V158H154zM156,156H158V158H156zM158,156H160V158H158zM4,158H6V160H4zM8,158H10V160H8zM10,158H12V160H10zM12,158H14V160H12zM16,158H18V160H16zM20,158H22V160H20zM24,158H26V160H24zM26,158H28V160H26zM28,158H30V160H28zM32,158H34V160H32zM44,158H46V160H44zM46,158H48V160H46zM54,158H56V160H54zM56,158H58V160H56zM62,158H64V160H62zM66,158H68V160H66zM72,158H74V160H72zM80,158H82V160H80zM82,158H84V160H82zM86,158H88V160H86zM92,158H94V160H92zM94,158H96V160H94zM98,158H100V160H98zM100,158H102V160H100zM106,158H108V160H106zM108,158H110V160H108zM112,158H114V160H112zM114,158H116V160H114zM116,158H118V160H116zM124,158H126V160H124zM128,158H130V160H128zM130,158H132V160H130zM132,158H134V160H132zM134,158H136V160H134zM140,158H142V160H140zM150,158H152V160H150zM156,158H158V160H156zM160,158H162V160H160zM4,160H6V162H4zM8,160H10V162H8zM10,160H12V162H10zM12,160H14V162H12zM16,160H18V162H16zM22,160H24V162H22zM28,160H30V162H28zM30,160H32V162H30zM32,160H34V162H32zM34,160H36V162H34zM36,160H38V162H36zM40,160H42V162H40zM48,160H50V162H48zM54,160H56V162H54zM56,160H58V162H56zM60,160H62V162H60zM64,160H66V162H64zM68,160H70V162H68zM78,160H80V162H78zM80,160H82V162H80zM88,160H90V162H88zM92,160H94V162H92zM96,160H98V162H96zM102,160H104V162H102zM106,160H108V162H106zM110,160H112V162H110zM112,160H114V162H112zM114,160H116V162H114zM116,160H118V162H116zM120,160H122V162H120zM124,160H126V162H124zM128,160H130V162H128zM130,160H132V162H130zM132,160H134V162H132zM138,160H140V162H138zM146,160H148V162H146zM148,160H150V162H148zM150,160H152V162H150zM152,160H154V162H152zM156,160H158V162H156zM160,160H162V162H160zM162,160H164V162H162zM164,160H166V162H164zM4,162H6V164H4zM16,162H18V164H16zM28,162H30V164H28zM30,162H32V164H30zM32,162H34V164H32zM38,162H40V164H38zM42,162H44V164H42zM48,162H50V164H48zM58,162H60V164H58zM62,162H64V164H62zM64,162H66V164H64zM76,162H78V164H76zM80,162H82V164H80zM84,162H86V164H84zM88,162H90V164H88zM90,162H92V164H90zM92,162H94V164H92zM94,162H96V164H94zM98,162H100V164H98zM104,162H106V164H104zM106,162H108V164H106zM108,162H110V164H108zM112,162H114V164H112zM114,162H116V164H114zM116,162H118V164H116zM118,162H120V164H118zM122,162H124V164H122zM124,162H126V164H124zM126,162H128V164H126zM130,162H132V164H130zM132,162H134V164H132zM134,162H136V164H134zM142,162H144V164H142zM144,162H146V164H144zM148,162H150V164H148zM152,162H154V164H152zM156,162H158V164H156zM158,162H160V164H158zM160,162H162V164H160zM162,162H164V164H162zM164,162H166V164H164zM4,164H6V166H4zM6,164H8V166H6zM8,164H10V166H8zM10,164H12V166H10zM12,164H14V166H12zM14,164H16V166H14zM16,164H18V166H16zM22,164H24V166H22zM24,164H26V166H24zM28,164H30V166H28zM32,164H34V166H32zM34,164H36V166H34zM40,164H42V166H40zM48,164H50V166H48zM50,164H52V166H50zM54,164H56V166H54zM58,164H60V166H58zM60,164H62V166H60zM70,164H72V166H70zM76,164H78V166H76zM80,164H82V166H80zM90,164H92V166H90zM96,164H98V166H96zM98,164H100V166H98zM102,164H104V166H102zM106,164H108V166H106zM108,164H110V166H108zM112,164H114V166H112zM114,164H116V166H114zM116,164H118V166H116zM118,164H120V166H118zM126,164H128V166H126zM130,164H132V166H130zM136,164H138V166H136zM138,164H140V166H138zM140,164H142V166H140zM142,164H144V166H142zM144,164H146V166H144zM146,164H148V166H146zM148,164H150V166H148zM154,164H156V166H154z" id="qr-path" fill="#000000" fill-opacity="1" fill-rule="nonzero" stroke="none"/></svg>